<?xml version="1.0" encoding="UTF-8"?>
<!DOCTYPE svg PUBLIC "-//W3C//DTD SVG 1.1//EN" "http://www.w3.org/Graphics/SVG/1.1/DTD/svg11.dtd">
<svg height="420px" id="LastFM" style="cursor: default;" version="1.1" viewBox="0 0 420 420" width="420px" xml:space="preserve" xmlns="http://www.w3.org/2000/svg" xmlns:xlink="http://www.w3.org/1999/xlink"><path d="M256.004,46.527C140.012,46.527,46,140.313,46,255.997  c0,115.691,94.012,209.476,210.004,209.476C371.98,465.473,466,371.688,466,255.997C466,140.313,371.98,46.527,256.004,46.527z   M339.947,340.197c-27.619-0.105-45.255-12.637-57.258-40.588l-3.057-6.799l-26.551-60.548  c-8.539-20.775-30.029-34.691-53.479-34.691c-32.213,0-58.417,26.212-58.417,58.448c0,32.229,26.204,58.44,58.417,58.44  c21.838,0,41.701-12.025,51.837-31.393c0.347-0.662,1.039-1.092,1.822-1.055c0.753,0.031,1.446,0.498,1.747,1.184l10.723,24.766  c0.301,0.686,0.181,1.461-0.286,2.041c-16.235,19.803-40.241,31.15-65.843,31.15c-46.941,0-85.134-38.199-85.134-85.133  c0-46.965,38.192-85.164,85.134-85.164c35.542,0,64.216,19.126,78.674,52.499c0.135,0.331,14.548,34.058,27.213,62.951  c7.484,17.055,13.434,27.469,33.087,28.131c18.75,0.641,32.499-10.314,32.499-25.549c0-13.553-8.434-16.92-27.469-23.268  c-32.876-10.82-50.707-21.867-50.707-49.156c0-26.678,18.434-43.93,46.941-43.93c18.735,0,32.47,8.23,42.003,25.15  c0.256,0.475,0.315,1.024,0.165,1.544s-0.512,0.956-0.994,1.189l-17.785,9.081c-0.873,0.459-1.943,0.181-2.516-0.609  c-6.054-8.479-12.801-12.236-21.867-12.236c-11.821,0-20.406,8.057-20.406,19.179c0,13.712,10.618,17.056,28.238,22.598  c2.305,0.729,4.713,1.491,7.199,2.296c27.649,9.021,43.658,19.886,43.658,48.863C397.537,318.436,372.778,340.197,339.947,340.197z" style="fill-rule:evenodd;clip-rule:evenodd;transform:translate(-46px,-46px)"/></svg>
