<svg width="59.085mm" height="59.085mm" version="1.1" viewBox="0 0 59.085 59.085" xmlns="http://www.w3.org/2000/svg">
 <g transform="translate(-4.6678 -107.3)">
  <path d="m51.686 133.49c-9.5229-5.6553-25.231-6.1753-34.322-3.4163-1.4599.44308-3.0037-.38136-3.4459-1.8408-.44249-1.4608.38075-3.0036 1.8417-3.4473 10.436-3.1676 27.783-2.5559 38.746 3.9518 1.313.77964 1.7438 2.4754.96555 3.7863-.77893 1.313-2.4761 1.7458-3.786.96629zm-.31186 8.3764c-.66816 1.0841-2.0856 1.4242-3.1683.75847-7.9393-4.8802-20.045-6.2939-29.438-3.4428-1.218.36809-2.5046-.31873-2.8746-1.5344-.367-1.218.32011-2.5022 1.536-2.8726 10.73-3.256 24.069-1.6789 33.187 3.9248 1.0827.66685 1.4235 2.085.75777 3.1666zm-3.6149 8.0444c-.53093.87065-1.6644 1.1434-2.5319.6127-6.9375-4.24-15.669-5.1974-25.953-2.8487-.99095.22723-1.9786-.39373-2.2046-1.3846-.22698-.99056.39165-1.9783 1.3848-2.2045 11.253-2.5726 20.907-1.4654 28.694 3.2928.86818.53026 1.1416 1.6644.61101 2.5323zm-13.549-42.611c-16.316 0-29.543 13.227-29.543 29.542 0 16.317 13.227 29.543 29.543 29.543 16.316 0 29.543-13.226 29.543-29.543 0-16.316-13.226-29.542-29.543-29.542" fill="#000"/>
 </g>
</svg>
